<?xml version="1.0" encoding="UTF-8"?>
<svg id="Layer_1" data-name="Layer 1" xmlns="http://www.w3.org/2000/svg" version="1.1" viewBox="0 0 1220.62 304.98">
  <defs>
    <style>
      .cls-1 {
        fill: #74acdf;
      }

      .cls-1, .cls-2, .cls-3, .cls-4, .cls-5 {
        stroke-width: 0px;
      }

      .cls-2 {
        fill: #efb94b;
      }

      .cls-3 {
        fill: #fff;
      }

      .cls-4 {
        fill: #63cfe3;
      }

      .cls-5 {
        display: none;
        fill: #606060;
      }
    </style>
  </defs>
  <rect class="cls-5" x="-794.63" y="-333.26" width="6020.33" height="967.65"/>
  <g>
    <g>
      <path class="cls-3" d="M680.98,112.73v27.31h-8.53v-62.98h21.56c6.9,0,12.16,1.53,15.8,4.59,3.64,3.06,5.45,7.5,5.45,13.33,0,3.23-.84,6.05-2.53,8.44-1.69,2.4-4.15,4.3-7.38,5.71,3.46,1.13,5.95,2.95,7.47,5.48,1.52,2.53,2.27,5.65,2.27,9.37v5.93c0,1.96.22,3.72.65,5.28.43,1.56,1.18,2.83,2.25,3.81v1.04h-8.79c-1.13-.98-1.85-2.42-2.16-4.33-.32-1.9-.48-3.87-.48-5.89v-5.76c0-3.4-1-6.15-2.99-8.22-1.99-2.08-4.66-3.12-8.01-3.12h-14.59ZM680.98,106.02h12.16c4.82,0,8.29-.92,10.41-2.75,2.12-1.83,3.18-4.62,3.18-8.38,0-3.55-1.03-6.3-3.09-8.25-2.06-1.95-5.27-2.92-9.63-2.92h-13.03v22.29Z"/>
      <path class="cls-3" d="M747.08,140.95c-6.72,0-11.97-2.15-15.73-6.45s-5.65-9.96-5.65-16.97v-1.9c0-6.72,1.94-12.29,5.82-16.69,3.88-4.4,8.62-6.6,14.22-6.6,6.26,0,10.96,1.95,14.09,5.84,3.13,3.9,4.7,9.08,4.7,15.54v4.5h-29.95l-.13.22c0,4.7,1.04,8.52,3.12,11.45,2.08,2.93,5.25,4.39,9.52,4.39,2.89,0,5.42-.41,7.6-1.23,2.18-.82,4.05-1.95,5.61-3.4l3.33,5.54c-1.67,1.62-3.88,2.98-6.62,4.09-2.74,1.11-6.05,1.67-9.91,1.67ZM745.74,99.05c-2.97,0-5.43,1.15-7.38,3.44-1.95,2.29-3.14,5.23-3.57,8.81l.09.22h21.12v-.69c0-3.4-.84-6.22-2.51-8.44-1.67-2.22-4.26-3.33-7.75-3.33Z"/>
      <path class="cls-3" d="M814,118.4c0,6.75-1.62,12.2-4.85,16.34-3.23,4.14-7.69,6.21-13.38,6.21-2.89,0-5.42-.48-7.6-1.45-2.18-.97-4.03-2.42-5.56-4.35v22.9h-8.53v-64.84h6.54l1.34,6.06c1.53-2.25,3.43-3.97,5.71-5.15,2.28-1.18,4.93-1.77,7.96-1.77,5.8,0,10.31,2.3,13.53,6.9,3.22,4.6,4.83,10.69,4.83,18.25v.91ZM805.47,117.49c0-5.31-1.05-9.67-3.14-13.09-2.09-3.42-5.17-5.13-9.24-5.13-2.45,0-4.55.56-6.28,1.67-1.73,1.11-3.13,2.63-4.2,4.57v22.64c1.07,1.93,2.47,3.44,4.2,4.52,1.73,1.08,3.85,1.62,6.36,1.62,4.04,0,7.1-1.48,9.18-4.44,2.08-2.96,3.12-6.77,3.12-11.45v-.91Z"/>
      <path class="cls-3" d="M854.21,133.12c-1.47,2.51-3.36,4.44-5.67,5.8-2.31,1.36-4.98,2.03-8.01,2.03-5.11,0-9.09-1.63-11.95-4.89-2.86-3.26-4.28-8.34-4.28-15.24v-27.62h8.53v27.7c0,4.99.74,8.43,2.21,10.3,1.47,1.88,3.77,2.81,6.88,2.81s5.53-.61,7.51-1.84c1.98-1.23,3.47-2.97,4.48-5.22v-33.76h8.53v46.84h-7.66l-.56-6.93ZM847.5,74.25h9.96l.09.26-11.64,11.25h-6.41l8.01-11.51Z"/>
      <path class="cls-3" d="M914.86,118.4c0,6.75-1.62,12.2-4.87,16.34-3.25,4.14-7.71,6.21-13.4,6.21-3.12,0-5.82-.61-8.12-1.84-2.29-1.23-4.19-3.04-5.69-5.43l-1.39,6.36h-6.54v-67.53h8.53v26.23c1.47-2.08,3.3-3.66,5.48-4.76,2.18-1.1,4.73-1.64,7.64-1.64,5.77,0,10.27,2.31,13.51,6.93,3.23,4.62,4.85,10.69,4.85,18.22v.91ZM906.33,117.49c0-5.37-.99-9.75-2.96-13.14-1.98-3.39-4.99-5.09-9.03-5.09-2.63,0-4.84.64-6.64,1.93-1.8,1.28-3.24,3.01-4.31,5.17v20.3c1.1,2.31,2.53,4.11,4.31,5.41,1.78,1.3,4.02,1.95,6.73,1.95,4.01,0,7-1.43,8.96-4.29,1.96-2.86,2.94-6.64,2.94-11.34v-.91Z"/>
      <path class="cls-3" d="M934.47,140.04h-8.53v-67.53h8.53v67.53Z"/>
      <path class="cls-3" d="M956.8,81.22h-8.53v-8.7h8.53v8.7ZM956.8,140.04h-8.53v-46.84h8.53v46.84Z"/>
      <path class="cls-3" d="M988.53,134.29c2.63,0,4.92-.87,6.88-2.62,1.96-1.75,2.94-3.89,2.94-6.43h7.7l.13.26c.11,4.04-1.62,7.63-5.19,10.76-3.58,3.13-7.73,4.7-12.47,4.7-6.58,0-11.66-2.24-15.24-6.71-3.58-4.47-5.37-10.04-5.37-16.71v-1.82c0-6.61,1.8-12.16,5.39-16.64,3.59-4.49,8.66-6.73,15.22-6.73,5.22,0,9.5,1.62,12.83,4.85,3.33,3.23,4.94,7.2,4.83,11.9l-.09.26h-7.75c0-2.86-.93-5.29-2.79-7.29-1.86-2.01-4.21-3.01-7.03-3.01-4.18,0-7.24,1.62-9.16,4.87-1.92,3.25-2.88,7.18-2.88,11.8v1.82c0,4.7.95,8.67,2.84,11.9s4.96,4.85,9.2,4.85Z"/>
      <path class="cls-3" d="M1045.11,140.04c-.29-1.41-.51-2.66-.67-3.74-.16-1.08-.25-2.17-.28-3.27-1.59,2.25-3.66,4.13-6.21,5.65-2.55,1.51-5.3,2.27-8.25,2.27-4.88,0-8.59-1.25-11.15-3.74-2.55-2.5-3.83-5.94-3.83-10.32s1.81-7.97,5.43-10.5c3.62-2.52,8.53-3.79,14.74-3.79h9.26v-4.63c0-2.74-.84-4.91-2.51-6.51-1.67-1.6-4.04-2.4-7.1-2.4-2.77,0-5.01.69-6.71,2.08-1.7,1.39-2.55,3.04-2.55,4.98l-8.09.09-.09-.26c-.2-3.4,1.39-6.52,4.78-9.35,3.39-2.83,7.77-4.24,13.14-4.24s9.58,1.35,12.81,4.05c3.23,2.7,4.85,6.59,4.85,11.67v22.55c0,1.67.09,3.29.26,4.85.17,1.56.49,3.09.95,4.59h-8.79ZM1030.95,133.81c3.09,0,5.87-.79,8.35-2.38,2.48-1.59,4.1-3.4,4.85-5.45v-7.62h-9.57c-3.43,0-6.18.87-8.25,2.6-2.06,1.73-3.1,3.77-3.1,6.1,0,2.08.65,3.72,1.95,4.93,1.3,1.21,3.22,1.82,5.76,1.82Z"/>
      <path class="cls-3" d="M703.75,232.83h-20.43l-4.24,13.59h-13.2l21.25-63.03h12.94l21.17,63.03h-13.2l-4.29-13.59ZM686.43,222.92h14.24l-6.97-22.21h-.26l-7.01,22.21Z"/>
      <path class="cls-3" d="M750.97,210.45l-4.63-.13c-1.88,0-3.42.39-4.63,1.17-1.21.78-2.14,1.88-2.77,3.29v31.64h-12.6v-46.84h11.73l.56,6.93c1.1-2.45,2.52-4.36,4.26-5.74,1.75-1.37,3.76-2.06,6.04-2.06.63,0,1.22.05,1.75.15.53.1,1.08.22,1.62.37l-1.34,11.21Z"/>
      <path class="cls-3" d="M754.87,223.4c0-7.39,1.6-13.35,4.8-17.88,3.2-4.53,7.71-6.8,13.51-6.8,2.63,0,4.93.59,6.93,1.77,1.99,1.18,3.69,2.87,5.11,5.06l1-5.97h10.86v46.62c0,6.09-1.99,10.8-5.97,14.13s-9.54,5-16.67,5c-2.37,0-4.88-.32-7.53-.97-2.66-.65-5.11-1.54-7.36-2.66l2.12-9.44c1.93.92,3.93,1.62,6,2.1,2.06.48,4.29.71,6.69.71,3.46,0,6.01-.72,7.64-2.16,1.63-1.44,2.45-3.69,2.45-6.75v-4.24c-1.39,1.76-3.02,3.1-4.89,4.03-1.88.92-4.03,1.39-6.45,1.39-5.74,0-10.22-2.11-13.42-6.32-3.2-4.21-4.8-9.78-4.8-16.71v-.91ZM767.51,224.31c0,4.1.69,7.32,2.06,9.67,1.37,2.35,3.61,3.53,6.73,3.53,1.93,0,3.57-.35,4.91-1.06,1.34-.71,2.42-1.74,3.22-3.1v-20.3c-.81-1.44-1.88-2.55-3.22-3.33-1.34-.78-2.95-1.17-4.83-1.17-3.09,0-5.34,1.37-6.75,4.11-1.41,2.74-2.12,6.32-2.12,10.74v.91Z"/>
      <path class="cls-3" d="M827.07,247.34c-6.98,0-12.44-2.14-16.36-6.43-3.93-4.29-5.89-9.8-5.89-16.56v-1.73c0-7.01,1.9-12.75,5.71-17.23,3.81-4.47,9.05-6.69,15.71-6.67,6.29,0,11.12,1.93,14.48,5.78,3.36,3.85,5.04,9.04,5.04,15.56v6.54h-27.92l-.13.26c.2,3.2,1.18,5.8,2.92,7.79,1.75,1.99,4.34,2.99,7.77,2.99,2.83,0,5.23-.29,7.21-.87,1.98-.58,4.02-1.46,6.12-2.64l3.42,7.79c-1.88,1.53-4.42,2.81-7.62,3.85-3.2,1.04-6.69,1.56-10.48,1.56ZM826.25,208.46c-2.54,0-4.49.87-5.87,2.62-1.37,1.75-2.2,4.06-2.49,6.95l.09.22h15.41v-.95c0-2.74-.56-4.9-1.69-6.47s-2.94-2.36-5.45-2.36Z"/>
      <path class="cls-3" d="M864.69,199.59l.56,6.71c1.56-2.39,3.48-4.26,5.76-5.58,2.28-1.33,4.83-1.99,7.66-1.99,4.73,0,8.43,1.52,11.08,4.57,2.65,3.04,3.98,7.86,3.98,14.44v28.7h-12.68v-28.66c0-3.35-.58-5.72-1.75-7.12-1.17-1.4-2.92-2.1-5.26-2.1-1.88,0-3.53.35-4.96,1.06-1.43.71-2.6,1.68-3.53,2.92v33.89h-12.64v-46.84h11.77Z"/>
      <path class="cls-3" d="M918.32,188.12v11.47h7.92v8.87h-7.92v23.85c0,1.82.38,3.12,1.15,3.9.76.78,1.77,1.17,3.01,1.17.66,0,1.24-.04,1.73-.11.49-.07,1.05-.2,1.69-.37l1.04,9.13c-1.27.43-2.5.76-3.7.97-1.2.22-2.5.32-3.92.32-4.36,0-7.71-1.2-10.06-3.59-2.35-2.39-3.53-6.19-3.53-11.38v-23.89h-6.84v-8.87h6.84v-11.47h12.6Z"/>
      <path class="cls-3" d="M947.32,188.38h-12.64v-9.48h12.64v9.48ZM947.32,246.43h-12.64v-46.84h12.64v46.84Z"/>
      <path class="cls-3" d="M969.27,199.59l.56,6.71c1.56-2.39,3.48-4.26,5.76-5.58,2.28-1.33,4.83-1.99,7.66-1.99,4.73,0,8.43,1.52,11.08,4.57,2.65,3.04,3.98,7.86,3.98,14.44v28.7h-12.68v-28.66c0-3.35-.58-5.72-1.75-7.12-1.17-1.4-2.92-2.1-5.26-2.1-1.88,0-3.53.35-4.96,1.06-1.43.71-2.6,1.68-3.53,2.92v33.89h-12.64v-46.84h11.77Z"/>
      <path class="cls-3" d="M1035.37,246.43c-.46-1.07-.86-2.19-1.19-3.38-.33-1.18-.57-2.39-.71-3.64-1.3,2.28-3.02,4.17-5.15,5.67-2.14,1.5-4.68,2.25-7.62,2.25-4.91,0-8.69-1.26-11.34-3.79-2.66-2.52-3.98-5.97-3.98-10.32,0-4.59,1.77-8.14,5.3-10.67,3.53-2.52,8.69-3.79,15.48-3.79h7.1v-3.72c0-2.25-.59-4-1.77-5.24-1.18-1.24-2.94-1.86-5.28-1.86-2.05,0-3.63.5-4.74,1.49-1.11,1-1.67,2.36-1.67,4.09h-12.16l-.09-.26c-.2-3.95,1.52-7.37,5.17-10.24,3.65-2.87,8.42-4.31,14.31-4.31s10.18,1.41,13.66,4.24c3.48,2.83,5.22,6.88,5.22,12.16v19.35c0,2.19.17,4.26.5,6.19.33,1.93.86,3.85,1.58,5.76h-12.6ZM1023.81,237.98c2.19,0,4.16-.55,5.89-1.64,1.73-1.1,2.91-2.37,3.55-3.81v-6.62h-7.1c-2.68,0-4.71.66-6.08,1.99-1.37,1.33-2.06,2.96-2.06,4.89,0,1.59.51,2.85,1.54,3.79,1.02.94,2.45,1.41,4.26,1.41Z"/>
    </g>
    <g>
      <path class="cls-3" d="M530.51,39.69v-.14l.04.14c2.8-.42,5.27-.71,7.44-.71,6.96,0,8.05,2.31,8.14,2.62,0,0,.26.57.95.57.12,0,.28,0,.37-.04.17-.01.35-.15.46-.24.05-.23.05-.45,0-.74-.11-.1-1.7-4.57-8.88-5.33-.04,0-3.87-.38-7.93.27-1.09.14-1.43,2.78-1.43,2.78-.08.33,0,.54.08.68.27.22.65.19.79.14"/>
      <path class="cls-3" d="M518.64,42.7h0c-1.69-.8-5.49-.56-5.49-.56-6.09.19-7.8,3.95-7.8,4-.23.45-.23.68-.12.96.17.25.52.25.52.25,1.22.36,1.57-.63,1.57-.63,0,0,.44-1.18,3.09-1.83.01-.07.08,0,.08.04.05,0,.05.09.05.14-.12.37-.22.7-.22,1.16,0,1.68,1.33,3.05,3.1,3.05s3.09-1.37,3.09-3.05c0-.46-.09-.87-.26-1.21,0-.09,0-.13.05-.2.06-.08.13-.08.13-.08,1.15.44,1.9,1.22,2.39,2.21.17.39.51.57,1.77.57.34,0,.67,0,.82-.25.07-.16.04-.32.04-.32-.72-3.24-2.8-4.26-2.8-4.26"/>
      <path class="cls-3" d="M530.28,47.52c1.28,0,1.59-.17,1.79-.57.5-.98,1.27-1.77,2.39-2.21,0,0,.09,0,.09.08.08.07.08.11.08.2-.17.34-.24.75-.24,1.21,0,1.68,1.36,3.05,3.08,3.05s3.08-1.37,3.08-3.05c0-.46-.07-.79-.26-1.16v-.14c.09-.04.1-.11.19-.11,2.58.72,3,1.78,3,1.9.09.1.46.93,1.54.63.28,0,.48-.07.53-.25.16-.28.16-.51,0-.96-.05-.05-1.76-3.81-7.81-4-.44,0-3.98-.15-5.49.56,0,0-2.08,1.01-2.77,4.12-.08.19-.08.33,0,.46.17.25.52.25.8.25"/>
      <path class="cls-3" d="M503.35,42.14h.08c.09.04.19.04.37.04.7,0,.92-.57.92-.61.1-.13,1.78-4.08,15.54-1.88,0,0,.51.07.87-.14.12-.13.12-.34.12-.61,0-.08-.33-2.7-1.49-2.84-1.44-.27-3.08-.42-4.82-.42s-3.08.16-3.08.16c-7.26.76-8.82,5.24-8.87,5.24-.11.39-.14.61-.09.84.21.23.45.24.45.24"/>
      <path class="cls-3" d="M619.84,192.16c.06-.54-.16-1.1-.58-1.41-.24-.23-.73-.45-1.09-.4.37-.65.57-1.42.89-2.19,1.18-3.16,1.74-6.88,1.83-10.97,0-.55-.25-1.03-.65-1.33-.4-.23-.8-.35-1.22-.23.24-.68.5-1.46.66-2.17.88-3.32,1.11-7.02.76-11.12-.07-.55-.34-1.02-.84-1.26-.35-.22-.8-.22-1.17-.11.23-.81.37-1.68.48-2.6.61-3.35.46-7.1-.32-11.16-.06-.45-.42-.89-.91-1.15-.29-.06-.67-.1-.9-.06.09-.6.17-1.21.23-1.85.38-3.37.1-7.09-.85-11.09-.15-.52-.49-.93-1.01-1.05-.44-.26-1.06-.15-1.42.12-.05,0-.05.09-.13.12.08-.93.08-1.89.08-2.87-.08-3.41-.94-7.03-2.43-10.89-.16-.5-.58-.86-1.1-.93-.42-.08-.93,0-1.29.23,0-.87-.08-1.72-.16-2.57-.51-3.32-1.69-6.92-3.49-10.59-.29-.47-.77-.81-1.3-.81-.47-.08-.88.03-1.21.43-.16-.78-.25-1.68-.51-2.46-.85-3.3-2.4-6.73-4.74-10.11-.3-.46-.73-.68-1.28-.68-.49,0-.99.22-1.3.68,0,0,0,.09-.04.09-.34-.93-.68-1.91-1-2.77-1.37-3.17-3.53-6.24-6.37-9.26-.33-.48-.9-.59-1.43-.48-.37.11-.79.36-.98.7-.41-.91-.92-1.85-1.54-2.74-1.8-2.81-4.33-5.55-7.49-8.07-.41-.24-.99-.38-1.44-.2-.41.16-.79.43-.97.89-1.97-2.65-4.7-4.71-8.13-6.12.42.06.83.1,1.28.1,4.5.31,7.75-.68,7.81-.72,1.12-.33,1.81-1.38,1.61-2.56-.09-1.03-1-1.92-2.16-1.94-4.83-.26-6.58-1.23-8.96-2.55-.2-.13-.45-.2-.61-.37l10.66-1.57c1.08-.19,1.97-1.19,1.97-2.31s-.89-2.17-1.97-2.34l-10.15-1.45c1.1-.25,2.18-.59,3.2-1.03,4.29-1.46,6.86-3.62,7.03-3.63.82-.75,1.05-2.08.51-2.97-.51-1.01-1.71-1.47-2.76-1.03-4.54,1.66-6.63,1.41-9.24,1.1-.29,0-.51,0-.74-.05l9.2-5.54c1.05-.59,1.38-1.82,1.01-2.9-.49-1.05-1.59-1.64-2.71-1.31l-9.99,2.49c.88-.75,1.84-1.45,2.6-2.22,3.43-3,4.97-5.94,5.06-6.1.51-1,.27-2.24-.58-2.91-.98-.7-2.16-.61-2.99.15-3.59,3.24-5.61,3.81-8.12,4.57-.14.08-.43.19-.69.21l6.44-8.62c.65-.96.55-2.23-.22-3.07-.85-.81-2.08-.88-3.02-.17l-8.31,6.15c.57-1,1.09-2.06,1.59-3.08,1.98-4.07,2.34-7.42,2.34-7.58.08-1.17-.64-2.17-1.7-2.48-1.03-.29-2.23.27-2.69,1.31-2.09,4.34-3.65,5.67-5.72,7.39-.17.07-.33.25-.55.44l2.62-10.54c.3-1.1-.32-2.28-1.35-2.65-1.04-.44-2.26-.08-2.92.93l-5.2,8.99c.06-1.24.14-2.43.22-3.53.3-4.55-.68-7.75-.73-7.94-.32-1.04-1.37-1.74-2.52-1.64-1.12.18-1.93,1.16-1.97,2.25-.24,4.8-1.22,6.65-2.5,9.01-.09.18-.17.35-.28.58l-1.5-10.62c-.19-1.11-1.21-1.98-2.38-1.98s-2.12.87-2.21,1.98l-1.43,10.07c-.36-1.07-.72-2.17-1.05-3.12-1.48-4.27-3.64-6.95-3.71-7.01-.66-.91-1.93-1.16-2.91-.56-.95.56-1.39,1.73-1.03,2.77,1.62,4.54,1.46,6.7,1.17,9.32-.07.2-.07.49-.14.74l-5.53-9.31c-.67-1.01-1.87-1.37-2.9-.93-1.07.47-1.62,1.61-1.37,2.65l2.58,10.02c-.72-.95-1.47-1.77-2.16-2.6-2.91-3.32-5.78-4.9-6.09-5.07-1.03-.51-2.25-.27-2.9.62-.71.92-.65,2.17.07,3,3.32,3.6,3.89,5.61,4.64,8.12.01.2.09.45.18.71l-8.68-6.41c-.91-.71-2.27-.63-3.01.17-.83.85-.86,2.12-.19,3.07l6.1,8.26c-1.02-.6-1.92-1.17-2.99-1.59-4.04-1.97-7.36-2.3-7.52-2.3-1.17-.16-2.16.59-2.45,1.61-.31,1.12.26,2.3,1.27,2.78,4.34,2.07,5.66,3.68,7.34,5.74.19.21.26.35.42.56l-10.44-2.61c-1.17-.33-2.28.27-2.68,1.38-.43,1.03-.08,2.25.95,2.83l8.85,5.34c-1.18-.18-2.36-.23-3.43-.36-4.47-.2-7.71.74-7.87.83-1.08.35-1.74,1.31-1.59,2.47.17,1.11,1.05,1.92,2.14,2.03,4.88.26,6.72,1.22,9.02,2.47.19.15.4.21.61.27l-10.64,1.58c-1.12.22-1.98,1.18-1.98,2.34,0,1.21.85,2.12,1.98,2.31l10.28,1.51c-1.19.38-2.29.7-3.33,1.06-4.26,1.47-6.88,3.61-6.95,3.7-.87.77-1.12,1.95-.59,2.94.59,1.01,1.78,1.46,2.79,1.01,2.33-.75,4.12-1.19,5.79-1.31-2.92,2.59-4.24,4-4.82,4.78-.48.62-.97,1.24-1.35,1.88-.19-.34-.49-.63-.87-.7-.56-.22-1.04-.07-1.49.17-3.25,2.59-5.85,5.35-7.67,8.17-.56.93-1.09,1.83-1.46,2.64-.21-.34-.67-.7-1.09-.7-.61-.11-1.08,0-1.44.48-2.81,3.01-4.91,6.09-6.3,9.26-.39.86-.68,1.77-.93,2.58-.27-.26-.71-.48-1.13-.48-.52,0-1.03.26-1.34.67-2.37,3.24-4.15,6.6-5.11,9.89-.25.9-.5,1.83-.68,2.74v-.12c-.33-.43-.85-.54-1.36-.46-.53,0-.96.34-1.29.77-1.88,3.59-3.1,7.2-3.54,10.55-.17.91-.22,1.78-.25,2.65h0c-.36-.32-.94-.48-1.39-.39-.6.15-.98.5-1.14.99-1.45,3.83-2.19,7.48-2.26,10.91,0,.87.07,1.81.15,2.7-.43-.34-1.02-.44-1.47-.26-.53.26-.87.61-.96,1.1-.95,3.99-1.25,7.73-.95,11.19.16.68.28,1.24.35,1.96-.26-.04-.48,0-.76.06-.48.26-.83.7-.96,1.15-.71,4.06-.85,7.81-.34,11.16.17.92.34,1.79.59,2.63-.25,0-.53.08-.72.19-.48.2-.81.69-.9,1.22-.41,4.03-.34,7.79.42,11.15.1.75.37,1.49.58,2.26-.39-.09-.83,0-1.18.15-.38.33-.67.74-.67,1.29-.09,4.12.43,7.79,1.56,11.09.29,1.04.66,1.95,1.14,2.82-.23-.01-.35-.11-.35-.11-.5-.1-1.09,0-1.42.41-.43.39-.58.84-.51,1.38.59,4.08,1.79,7.61,3.43,10.66.33.61.67,1.19,1.04,1.75-.31.1-.63.23-.82.43-.34.34-.5.95-.4,1.46.95,3.94,2.43,7.46,4.22,10.3.5.79.95,1.44,1.48,2.08-.44.08-.89.29-1.18.59-.3.48-.39,1.01-.22,1.55,1.4,3.82,3.17,7.12,5.37,9.79.51.57,1.03,1.16,1.57,1.7-.4.12-.78.37-1.02.7-.24.48-.24,1.06,0,1.55,1.81,3.65,3.94,6.68,6.47,9.12.55.48,1.1,1.05,1.72,1.52-.38.14-.71.41-.87.79-.28.5-.19,1.01.06,1.51,2.27,3.43,4.75,6.21,7.4,8.36.85.73,1.8,1.29,2.65,1.79-.25.12-.41.19-.43.19-.5.18-.94.61-1.02,1.11-.09.56,0,1.03.36,1.45,2.81,2.99,5.75,5.28,8.68,6.9,2.3,1.39,4.71,2.32,7.09,2.69,1.91.39,3.93.39,5.6.15,5.17,3.65,10.6,6.68,16.22,9.12,4.62,1.93,9.42,3.41,14.12,4.44.68.12,1.39.23,2.07.4l1.62.26c1.01.37,1.97.58,2.62.7-.12.54-.12,1.02-.12,1.47,0,.57.1,1.08.21,1.7-1.75,1.65-7.59,6.84-16.02,7.86l-.51.11.26.43c.33.51,1.06,1.56,2.34,2.72l.11.12.11-.04c7.56-1.44,12.9-5.52,15.47-7.93.22.24.46.44.58.65-.51,2.15-2.8,7.27-11.49,9.62l-.89.2.89.44c1.57.58,3.3,1.06,5.06,1.39h.14l.09-.12c6.49-2.89,8.84-7.46,9.61-9.99.85.18,1.71.18,2.55.06.87,2.46,3.12,7.03,9.64,9.93l.05.12h.11c1.81-.33,3.5-.81,5.06-1.39l.95-.44-.95-.2c-8.67-2.34-10.91-7.46-11.54-9.59.28-.19.46-.44.65-.58,2.59,2.3,7.93,6.39,15.42,7.82l.17.04.09-.12c1.32-1.15,2.01-2.21,2.36-2.72l.24-.43-.5-.11c-8.12-.98-13.86-5.78-16.01-7.86.16-.58.24-1.13.24-1.7,0-.45-.08-.93-.16-1.47.88-.12,1.74-.43,2.49-.66l1.79-.3c2.26-.37,4.49-.83,6.53-1.43,4.72-1.29,9.49-3.02,13.92-5.26,6.41-3.19,10.65-6.27,11.96-7.27,1.67.23,3.68.23,5.64-.15,2.35-.37,4.67-1.3,7.08-2.69,2.91-1.62,5.83-3.92,8.67-6.9.35-.42.45-.89.35-1.45-.14-.5-.45-.93-.98-1.11-.03,0-.15-.07-.44-.19.97-.5,1.85-1.06,2.71-1.79,2.76-2.15,5.24-4.93,7.5-8.36.22-.5.22-1.01.06-1.51-.17-.38-.51-.66-.92-.79.61-.47,1.16-1.04,1.76-1.52,2.45-2.44,4.6-5.46,6.44-9.12.23-.48.23-1.06-.07-1.55-.27-.44-.68-.7-1.2-.7.62-.61,1.14-1.26,1.7-1.9,2.15-2.7,3.96-6,5.33-9.86.16-.41.16-.92-.08-1.35-.32-.37-.8-.7-1.3-.7h-.07c.42-.59.9-1.27,1.39-1.97,1.93-2.83,3.4-6.28,4.35-10.27.15-.5,0-1.07-.34-1.41-.34-.43-.87-.61-1.37-.54.46-.7.81-1.48,1.28-2.26,1.53-3.05,2.6-6.65,3.06-10.73M618.07,179.31h0c0,.08.09.16.09.19-.29,2.82-.78,5.42-1.54,7.62-.85,2.26-1.99,4.28-3.43,5.99-1.66,1.94-3.36,3.01-4.08,3.42h-.02s-.13,0-.13-.1c-2.25-3.02-3.34-6.83-3.25-11.18,0-1.39.16-2.74.41-4.2l.08-.11q.13,0,.19.03c2.02,2.47,3.1,5.62,3.17,5.81.07.41.49.78.95.78h.08c.41,0,.88-.25,1.04-.68,1.86-3.85,4.43-6.26,6.25-7.49.13-.08.16-.08.2-.08M617.68,164.81c.03-.11.13-.11.13-.11q.06.11.06.18c.13,2.83-.16,5.38-.76,7.74-.58,2.41-1.52,4.44-2.76,6.26-1.45,2.17-3.1,3.34-3.68,3.77h-.21c-3.95-4.52-4.34-11.16-4.13-14.76q0-.11.06-.11c0-.07.1,0,.13,0,2.1,2.34,3.54,5.11,3.54,5.23.27.44.69.65,1.15.65.47-.1.83-.33,1.05-.77,1.44-4.08,3.72-6.63,5.43-8.08M616.06,149.92h.2c.06,0,.06.1.06.14.38,2.8.38,5.36,0,7.77-.36,2.4-1.04,4.61-2.16,6.53-1.25,2.3-2.69,3.72-3.37,4.11,0,.11-.05.11-.05.11q-.07,0-.1-.11c-3.94-3.26-5.11-10.29-5.44-14.14,0-.08,0-.14.05-.19.04,0,.09,0,.17.05,2.29,2.09,3.96,4.66,3.96,4.66.22.43.66.64,1.12.64.49-.08.8-.45.96-.88,1.05-4.23,3.07-6.98,4.59-8.68M613.76,135.94h0c0-.08.09-.08.19-.08,0,0,.07.08.07.14.52,2.8.62,5.32.34,7.75-.26,2.42-.86,4.61-1.84,6.64-1.16,2.3-2.52,3.75-3.09,4.28h-.21c-3.26-2.83-4.81-6.99-5.6-9.95-.31-1.32-.56-2.7-.7-4.07,0-.07.03-.14.11-.14,0-.06.11,0,.16,0,2.43,1.96,4.21,4.61,4.29,4.61.24.41.71.63,1.13.53.48-.12.82-.44.95-.93.84-4.21,2.74-7.15,4.2-8.77M537.9,212.47c.09.41.44.79.87.96,4.79,2.41,8.76,7.27,10.29,9.35h0c-.14.41-.42.81-.69,1.13-.84.94-1.98,1.35-3.43,1.35h-.24c-.53-1.12-1.43-2.48-2.76-3.95-1.66-1.97-5.19-4.45-5.24-4.45-.81-.57-1.9-.46-2.4.39-.63.82-.45,1.84.41,2.46.86.61,3.45,2.57,4.61,3.88,1.41,1.67,2.01,2.7,2.17,3.16v.11c-.16.32-.52.86-1.03,1.37-.82.76-1.81,1.13-3.01.9l-.04-.04c-.48-1.06-1.6-3.3-3.66-5.61-.7-.74-1.79-.77-2.45-.15-.34.35-.61.75-.61,1.17-.02.54.15.98.39,1.3,1.55,1.72,2.42,3.25,2.94,4.3v.07c-.44.28-.87.48-1.31.66-1.09.44-2.4.55-3.69.39l-.02-.04v-.03c.56-.86.87-1.73,1.03-2.7.12-1.04-.16-2.66-1.72-4.21-.88-.81-2.54-1.59-4.82-1.16h-.06v-.08c-.15-1.23-.77-2.37-1.98-3.37-1.71-1.55-3.78-2.01-5.98-1.31-.1,0-.1.11-.22.11h-.05c-.33-.97-1.12-2.22-3.02-3.19-1.66-.8-3.47-.94-5.32-.34h-.05c-1.6-1.38-3.73-1.63-4.34-1.72-2.56-.37-6.01.92-8.24,3.03h0c-11.61,6.22-26.67,13.04-32.5,15.66h-.07v-.02c-3.17-6.06-5.94-12.52-8.15-19.37-.59-1.88-1.18-3.86-1.7-5.83v-.04c.07,0,.07-.04.07-.04,16.99-1.99,30.67-3.95,40.6-5.95,10.37-2.06,17.02-4.2,20.37-6.44h.09c3.99-2.85,6.69-4.27,10.57-3.94,1.24.07,2.34.29,3.27.42h.08c0,.1-.08.1-.08.1-.93.3-1.85.79-2.73,1.41-1.57,1.08-2.61,1.94-3.35,2.61-.96.71-1.65,1.3-2.71,1.98-.82.54-1.86,1.01-2.79,1.56-2.34,1.14-4.15,1.94-4.72,3.43h-.07l.07.1c-.61,1.61-.37,3.05.77,4.63,1.7,2.43,4.56,2.23,6.9,2.14,2.56-.18,5.71-1.08,8.03-2.44.77-.48,1.6-1.02,2.25-1.41,1.03-.72,1.89-1.31,2.58-1.41,0,0,.06,0,.08-.07,2.07-.52,4.48-.28,7.25.76,2.39.97,4.87,2.43,7.12,3.89,5.33,3.5,9.33,8.26,10.43,9.65v.02c-.08.68-.37,1.49-1,2.22-.67.58-1.64.87-2.98.87h-.03c-1.59-2.18-6.03-7.57-11.59-10.37-.84-.42-1.86-.05-2.36.77-.19.4-.19.99-.03,1.37M524.7,230.44s-.1.08-.1.08h-.04c-.68.63-2.99,1.99-4.9,1.99h-.63c-.39-.1-.87-.24-1.42-.89-.05,0-.05-.05-.05-.05.93-1.97,2.9-3.27,4.69-4.29,2.44-1.48,3.52-.62,3.63-.51.76.76.69,1.2.69,1.31-.09.97-1.32,2.03-1.87,2.37h0ZM504.5,220.61c2.48-2.37,4.44-3.08,6.11-2.19.46.22,1.2.61,1.26,1.12.06.18.06.44,0,.59h0c-.39.34-.79.57-1.09.86-2.69,1.79-4.25,3.81-4.8,5.77,0,.11-.03.11-.03.11h0c-.45-.11-.84-.22-1.22-.39-2.14-.69-2.23-1.83-2.31-2.25,0-1.1.49-2.12,2.09-3.61M502.04,218.12c-1.17,1.13-2.41,2.58-2.9,4.41,0,.05-.02.12-.02.12h-.07c-.34-.06-.65-.12-1.02-.12-1.22-.24-2.17-.7-2.38-1.12-.04-.26-.4-.92.5-2.06,1.25-1.59,4.1-2.97,5.86-2.66h.17c.22,0,.66.06,1.09.21q.07,0,.07.09v.05c-.45.23-.81.72-1.3,1.08M512.71,223.83c3.16-2.22,4.91-3.03,6.53-1.55.5.41.72.8.72,1.16-.07.62-.81,1.46-1.45,2.03-2.02,1.39-3.37,2.97-4.17,4.69q0,.12-.05.12c-.42.05-1.13.15-1.91.15-.84,0-1.77-.15-2.38-.63-.27-.12-.64-.44-.72-1.28-.15-1.84,2.08-3.7,3.43-4.69M548.2,68.93c-.1-.1-.12-.14-.1-.22t.1-.1c1.47-.47,2.96-.74,4.39-.79,4.12-.27,7.64,1,10.3,3.93.08,0,.08.04.08.14,0,0-.08.11-.12.11-.87.23-2.23.57-3.89.71-.17,0-.4.04-.58.04-3.49,0-6.91-1.36-10.18-3.82M553.01,74.76h-55.05c8.75-4.39,18.01-6.62,27.55-6.62s18.67,2.23,27.51,6.62M559.91,63.5c-1.23.46-3.19,1.15-5.32,1.54-1.39.26-2.71.42-3.97.42-3.01,0-5.49-.76-7.56-2.2-.11,0-.11-.11-.11-.15,0-.08,0-.14.11-.14.96-.49,2.49-1.29,4.45-1.78,2.13-.42,4.34-.55,6.44-.2,2.02.38,4.06,1.11,6.03,2.27,0,0,.1,0,.1.07,0,.06-.1.12-.17.16M546.74,58.83c-1.38.7-3.79,1.49-7.37,1.94-.46.07-.78.4-.95.79-.08.55.1,1.04.49,1.35,0,0,2.76,1.88,4.83,4.46v.18c-.09.02-.09.04-.17.04-3.34-.04-9.71-1.1-14.2-6.5-.07-.09-.07-.2,0-.21.72-.69,2.03-1.71,3.88-2.38,3.62-1.37,8.26-1.37,13.5,0,.1.11.1.13.1.21,0,.06,0,.12-.1.12M531.73,56.35c-1.22.98-3.41,2.29-6.95,3.4-.49.07-.79.57-.79,1.02,0,.49.24.96.71,1.15.08,0,3.09,1.12,5.46,3.21.05,0,.11.06.05.16-.05,0-.05.04-.13.1-1.04.07-1.98.14-3.02.14-3.44,0-8.32-.69-12.12-3.51-.03-.06-.06-.1-.03-.15.58-.88,1.59-2.1,3.31-3.16,3.25-2.09,7.9-3.01,13.33-2.64.07,0,.17,0,.17.13.01.05,0,.07,0,.14M516.16,56.57c-.88,1.28-2.68,3.09-6.23,4.81-.46.18-.7.7-.65,1.16.09.5.47.92.95.96.03.1,3.2.65,6.07,2.03.06,0,.06.1.06.21,0,0-.06.08-.1.08-1.33.43-2.68.73-4.05,1.03-1.36.28-2.77.4-4.2.4-2.65,0-5.11-.44-7.23-1.51,0,0-.1-.11,0-.21.36-.88,1.09-2.27,2.5-3.77,2.84-2.73,7.22-4.63,12.77-5.42.06,0,.11,0,.11.06.09.05.09.16,0,.16M501.68,59.17h0c-.75,1.67-2.25,4.17-5.44,7-.38.32-.51.86-.37,1.31.2.4.62.66,1.15.66h0c.18,0,1.45.11,3.09.21,1.18.24,2.23.43,3.24.72,0,0,.08.1.1.1,0,.11-.02.2-.1.2-1.3.59-2.57,1.19-3.86,1.65-2.59.89-4.99,1.34-7.31,1.34-1.52,0-3-.26-4.27-.6-.11,0-.13-.07-.13-.19.52-2.57,2.89-8.93,13.73-12.61.06,0,.16,0,.16.04.09.04.09.12.02.17M559.45,78.44c3.07,2,5.95,4.14,8.73,6.63h-85.43c2.79-2.49,5.7-4.63,8.63-6.63h68.07ZM572.18,88.78c2.08,2,4.02,4.2,5.95,6.53h-41.6c-5.56-4.07-11.51-3.79-12.35-3.71-.83,0-6.48.19-11.6,3.71h-39.73c1.89-2.33,3.89-4.52,5.93-6.53h93.39ZM511.81,137.12c-3.55-.28-6.52.69-10.15,2.25,0,.03-.1.03-.1,0h0c0-.3.1-.67.19-1,1.86-9.74,5.69-16.37,8.57-20.24,2.11-2.9,4.09-4.74,5.07-5.55.27-.17.56-.44.85-.68.83-.67.94-1.92.35-2.76-.72-.84-1.9-1.09-2.84-.46-.05.05-.38.23-.95.7-1.54,1.13-3.02,1.48-3.96.88-.84-.43-1.14-1.46-.95-2.77.36-2.16,2.75-5.01,3.63-5.9.1,0,.1-.12.11-.12,4.83-5.69,12.53-5.83,12.59-5.83,0,0,2.58-.21,5.59.82,4.14,1.35,7.31,4.19,9.45,8.39,3,5.9,5.3,11.93,7.03,18.38l-.08.05h0c-4.35-1.53-7.88-4.37-8.05-4.43-.87-.72-2.11-.61-2.86.24-.68.84-.6,2.14.27,2.86.25.21,5.47,4.54,11.77,5.85,0,.04.07.04.07.04.48,2.31.88,4.66,1.33,7.49.02.1,0,.1,0,.1h-.1c-2.06-1.12-4.57-1.83-6.59-2.36-1.38-.34-2.61-.7-3.63-1.05-4.28-1.75-8.05-4.66-8.09-4.77-.85-.71-2.09-.5-2.83.35-.69.87-.54,2.21.35,2.92.09.14,4.13,3.33,9.06,5.26,1.26.52,2.61.88,4.07,1.24,5.48,1.5,8.18,2.6,8.24,5.55v.08c-.06.5-.41.83-.72,1.18-1.61,1.78-4.87,2.18-6.55,2.18h-5.86c-1.03-.04-6.36-.25-10.89-3.27-5.53-3.55-9.64-5.26-13.39-5.61M522.49,145.87c0,.08-.06.12-.06.12h-16.41c-1.72,0-2.83-.48-3.61-1.38-.18-.25-.37-.52-.51-.8q0-.07.08-.13c7.39-3.4,10.83-3.99,20.45,2.13.06,0,.06.05.06.05M527.92,160.61h75.14c.25,2.33.37,4.71.49,7.04h-75.63v-7.04ZM527.92,156.9v-6.6h73.91c.36,2.19.68,4.37.87,6.6h-74.78ZM551.47,146.59c.78-.84,1.28-1.81,1.63-2.91.1-.12.15-.29.17-.35.26-1.01.34-2.12.26-3.28h46.26c.53,2.19.98,4.32,1.4,6.54h-49.72ZM553.01,136.33c-.29-2.12-.66-4.25-1.1-6.59h44.93c.18.56.37,1.11.56,1.66.56,1.67,1,3.23,1.43,4.94h-45.81ZM551.17,126.05c-.44-2.1-1.02-4.3-1.68-6.55h43.42c.94,2.22,1.76,4.32,2.66,6.55h-44.39ZM548.3,115.82c-.69-2.12-1.56-4.26-2.49-6.55h41.93c1.24,2.1,2.32,4.34,3.43,6.55h-42.87ZM544.18,105.53c-.44-.82-.89-1.71-1.28-2.6-.79-1.49-1.64-2.87-2.53-3.96h40.65c1.55,2.1,3.01,4.29,4.47,6.56h-41.32ZM508.43,98.97c-.89.96-3.31,3.67-4.2,6.56h-38.78c1.4-2.27,2.93-4.46,4.49-6.56h38.49ZM503.89,109.26c.25,1.97,1.23,3.54,2.9,4.59.46.17.79.33,1.22.47v.14c-.36.35-.68.88-1.03,1.35h-47.17c1.12-2.21,2.24-4.46,3.43-6.55h40.65ZM504.5,119.5c-1.15,1.92-2.27,4.06-3.27,6.55h-45.82c.88-2.23,1.74-4.33,2.66-6.55h46.44ZM499.81,129.73c-.67,2.05-1.27,4.2-1.78,6.59h-45.86c.42-1.71.85-3.27,1.37-4.94.18-.54.35-1.1.59-1.66h45.68ZM497.47,140.05c-.1.88-.07,1.83.06,2.62,0,.12,0,.32.04.39.2,1.38.65,2.46,1.26,3.53h-49.08c.43-2.22.88-4.35,1.42-6.54h46.31ZM523.01,150.3v6.6h-74.78c.22-2.23.55-4.41.86-6.6h73.92ZM523.01,160.61v7.04h-75.57c.08-2.33.22-4.71.4-7.04h75.17ZM523.01,171.49v15.14l-.06.08h-.46c-4.27,0-7.57,1.73-11.59,4.55-5.95,4.04-26.08,8-59.89,11.89l-.08-.04c-2.35-10.06-3.54-20.56-3.54-31.19v-.43h75.63ZM547.35,205.01c-3.7-2.41-10.55-6.91-17.07-5.08-1.32.25-2.49.99-3.8,1.9-.59.4-1.28.81-2.07,1.27-2.08,1.26-4.8,1.9-6.44,1.97-2.09.14-3.27.14-3.87-.67-.45-.64-.45-.9-.34-1.26v-.04c.41-.46,1.97-1.21,2.93-1.67,1.12-.57,2.31-1.1,3.21-1.75,1.26-.79,2.12-1.48,2.99-2.23.86-.66,1.72-1.4,3.21-2.44,2.06-1.49,4.29-1.49,7.67-1.56.54-.05,1.09-.05,1.66-.05.4,0,.82,0,1.19-.08,3.62-.1,6.87,1.01,11.76,2.79,1.38.54,3.02,1.16,4.73,1.7h.1c.06.05,6.53,2.11,15.69,4.28,7.74,1.86,19.28,4.28,30.05,4.95h.07v.05c-.53,1.86-1.05,3.65-1.6,5.37-2.26,7.07-5.11,13.83-8.42,20.03h-.13c-5.22-2.13-18.37-7.85-26.99-14.26-1.75-1.26-2.95-2.57-3.52-3.17h-.12v-.18c-.22-.19-.31-.34-.31-.34-1.82-2.14-5.57-6.27-10.57-9.53M554.22,194.52c-1.71-.63-3.25-1.19-4.64-1.68-5.11-1.85-8.76-3.15-13.17-2.96h-.76c-2.31-1.17-4.56-2.01-7.64-2.59-.08,0-.1-.11-.1-.11v-15.7h75.66v.43c0,10.85-1.21,21.49-3.73,31.65h0c-20.52-1.15-44.61-8.7-45.63-9.05M609.28,121.72q.11-.14.22-.14l.07.14c.9,2.62,1.38,5.15,1.44,7.66.09,2.41-.26,4.69-.95,6.81-.8,2.43-2,4-2.48,4.69h-.17c-3.1-1.98-5.51-5.02-7.06-9.13-.49-1.25-.89-2.6-1.15-3.96v-.21h.15c2.76,1.67,4.96,4.08,4.96,4.08.37.34.81.46,1.24.34.46-.22.8-.57.8-1.03.33-4.32,1.78-7.42,2.95-9.26M600.84,118.59c.35-.13.69-.61.69-1.03-.18-4.33.99-7.57,2.02-9.6.03-.03.07-.03.07-.03.08,0,.15,0,.17.12,1.12,2.55,1.84,5.03,2.2,7.46.33,2.39.33,4.67-.21,6.84-.52,2.5-1.57,4.18-2.01,4.89h-.19c-3.24-1.6-5.9-4.34-7.9-8.33-.63-1.2-1.21-2.5-1.68-3.77,0-.07,0-.14.1-.14.05-.11.06-.11.15-.11,2.85,1.37,5.33,3.57,5.33,3.57.37.3.85.39,1.26.13h0M594.8,106.08c.41-.21.66-.68.59-1.16-.74-4.22.07-7.68.84-9.71,0-.08.08-.08.15-.08h0c.07,0,.13,0,.13.08,1.44,2.38,2.49,4.81,3.08,7.1.6,2.43.76,4.76.6,6.9-.24,2.57-1.1,4.4-1.44,5.06,0,.06-.11.12-.11.12h-.09c-3.62-1.31-6.69-3.89-9.1-7.52-.77-1.14-1.38-2.36-1.99-3.69v-.19c.07-.06.14-.06.16-.06,3.11.89,5.86,3.02,5.86,3.08.43.29.89.29,1.31.07M585.84,94.42c.41.32.9.32,1.3,0,.4-.23.6-.75.4-1.26-1.14-3.78-.97-7.33-.56-9.66,0-.09.04-.09.04-.09.12-.02.19,0,.19,0,1.77,2.16,3.16,4.39,4.14,6.55.94,2.24,1.55,4.45,1.63,6.67.17,2.39-.25,4.35-.57,5.16-.05.1-.12.1-.12.1h-.04c-3.57-.63-6.91-2.65-9.97-5.81-1.03-1.1-1.94-2.26-2.77-3.53-.03-.08-.03-.12,0-.22h.13c3.45.22,6.11,2.08,6.2,2.08M576.8,84.05c.36.22.88.07,1.23-.28.35-.37.42-.9.13-1.33-1.97-3.84-2.28-7.25-2.21-9.51,0,0,0-.07.07-.07.09-.07.11,0,.17,0,2.12,1.82,3.69,3.8,5.06,5.74,1.31,2.07,2.23,4.21,2.74,6.4.57,2.49.39,4.59.33,5.34,0,.11-.04.11-.13.11h-.28c-4.03,0-7.73-2.18-10.12-4.12-1.19-.92-2.4-1.92-3.51-3.12-.02-.03-.02-.1,0-.12,0,0,0-.04.08-.04,3.25-.23,6.32,1.01,6.43,1.01M573.23,74.63c.95,2.44,1.11,4.79,1.03,5.98,0,.07-.04.17-.08.17h-.7c-4.97,0-10.81-3.44-13.86-5.44-.02-.03-.05-.03-.05-.15.03-.04.05-.11.15-.11,3.08-.55,6.01.07,6.19.11.41.12.93-.11,1.18-.5.28-.41.25-.96-.08-1.42-1.93-2.41-3.14-5.21-3.83-7.26,0,0,0-.09.03-.09.04,0,.12-.09.17,0,4.86,1.64,8.22,4.53,9.85,8.72M480.6,60.78h-.07c0-.1,0-.12.03-.12,1-.5,2.06-1,3.14-1.37,2.89-1.03,5.75-1.68,7.11-2.03,3.15-.68,5.4-2.04,5.51-2.18.07-.09.17-.25.17-.44-.1-.15-.17-.29-.33-.29l-16.69-2.45v-.07h0l16.69-2.54c.16,0,.33-.12.33-.4,0-.16-.17-.38-.33-.38-.09,0-3.24-.5-6.49-2.04-.93-.39-1.72-.83-2.52-1.25-1.94-1.03-3.55-1.93-6.54-2.41t-.04-.11l.04-.02c1.14-.06,2.3-.14,3.44-.06,3.1.18,5.89.59,7.34.86,3.22.58,5.78.16,5.89.16.19-.06.29-.16.33-.36,0-.13-.04-.33-.2-.48l-14.46-8.61s-.04,0-.04-.07c.04,0,.1-.06.1,0l16.31,4.05c.19.07.44-.03.5-.2.13-.18,0-.42-.12-.49-.05,0-2.79-1.7-5.25-4.34-.7-.75-1.31-1.45-1.81-2.14-1.38-1.73-2.57-3.19-5.15-4.78,0-.07-.04-.07,0-.11h.09c1.06.37,2.1.73,3.16,1.27,2.73,1.36,5.24,2.85,6.43,3.62,2.78,1.71,5.25,2.33,5.38,2.37.21.04.35-.04.46-.22.11-.09.11-.31-.09-.45l-9.99-13.44v-.14s.08-.04.08,0l13.54,10.03c.14.17.35.13.53,0,.18-.2.18-.39,0-.57,0,0-1.83-2.53-3.1-5.98-.37-.92-.61-1.87-.92-2.65-.63-2.16-1.14-3.95-2.88-6.43-.04,0-.04-.07,0-.07,0,0,0-.01.09,0,.89.74,1.65,1.53,2.42,2.37,2.05,2.35,3.79,4.77,4.66,5.9,1.8,2.58,3.94,4.17,4.03,4.23.11.09.3.09.49,0,.07-.07.18-.27.15-.49l-4.19-16.27s0-.08.05-.08h.04l8.69,14.49c.09.17.34.23.49.17.23,0,.39-.3.28-.45,0-.21-.73-3.19-.63-6.77,0-1.03.12-1.95.23-2.76.23-2.26.4-4.12-.28-7.06q0-.14.05-.14h.12c.51,1.07.95,2.08,1.31,3.2.98,2.97,1.7,5.77,2.02,7.25.73,2.98,1.97,5.23,2.13,5.47.11.09.29.19.48.19.16-.1.23-.19.23-.33l2.39-16.69h.09l2.44,16.69c0,.14.21.33.43.33.24,0,.42-.19.42-.33,0-.23.5-3.29,1.91-6.5.5-.99.93-1.79,1.37-2.55.99-1.93,1.89-3.6,2.39-6.58h.09c.09,1.2.09,2.31.08,3.42-.17,3.16-.64,6-.87,7.43-.6,3.19-.17,5.83-.11,5.89.02.17.18.3.33.36.15,0,.35-.06.47-.19l8.6-14.53h.04s.04,0,.04.06l-4.12,16.38c-.04.13.1.4.26.49.25.07.42,0,.51-.21,0,0,1.63-2.79,4.29-5.18.75-.71,1.47-1.32,2.15-1.88,1.68-1.39,3.21-2.58,4.75-5.15.02-.04.08-.04.08-.04,0,.04.09.06,0,.06-.25,1.13-.74,2.17-1.21,3.17-1.35,2.83-2.83,5.32-3.65,6.59-1.72,2.71-2.27,5.34-2.37,5.37,0,.17.1.38.19.43.16.11.33.11.5,0l13.41-10.08q.09-.04.12,0t0,.07l-10.01,13.54c-.13.21-.13.43.05.56.12.13.41.13.57.06,0,0,2.52-1.91,5.94-3.18.93-.33,1.86-.58,2.62-.87,2.08-.66,3.92-1.18,6.37-2.91q.1-.02.13,0v.12c-.74.85-1.52,1.68-2.41,2.46-2.34,2.06-4.59,3.75-5.83,4.59-2.61,1.92-4.2,3.96-4.25,4.1-.09.06-.09.26,0,.41.11.21.32.3.49.21l16.24-4.17.04.06c.06,0,.06.07,0,.07l-14.38,8.69c-.23.13-.25.33-.23.5.14.2.33.33.56.26.1,0,3.11-.76,6.67-.63,1.03.03,1.96.14,2.81.21,2.17.26,4.05.42,6.99-.26.06,0,.06.06.06.06v.14c-1.02.49-2.07.91-3.14,1.27-2.95,1.02-5.69,1.71-7.19,2.01-3.09.72-5.31,2.08-5.43,2.17-.14.13-.23.29-.23.48.1.16.23.31.4.31l16.62,2.45h.08c0,.07-.08.07-.08.07l-16.62,2.54c-.23,0-.4.13-.4.39,0,.16.17.38.34.39.06,0,3.18.49,6.43,2.03.99.38,1.79.83,2.6,1.26,1.87,1.02,3.51,1.99,6.51,2.39l.04.11s-.04.09-.04.09c-.68,0-1.29.08-1.97.08-.53,0-.94,0-1.46-.08-3.08-.2-5.91-.59-7.34-.89-.15-.01-.31-.01-.39-.06h-.12c-2.54-1.15-5.2-1.73-7.93-1.73h-.17v-.06c0-.11,0-.19-.02-.35-.12-.42-.46-.77-.78-.87-3.12-1.07-6.01-1.73-8.78-1.94h-.68c-.09-.13-.26-.13-.45-.13h-1.01c-1.19,0-2.47.13-3.61.32h-.08v-.66c-.09,0-.09-.04-.09-.1-.17-.34-.52-.55-.93-.65-.24-.03-.51-.11-.79-.11h-.26c-.21-.03-.33-.03-.52-.08h-.33c-.16,0-.33-.07-.4-.07-3.21-.25-6.06-.1-8.63.41-.67.15-1.46.34-2.05.49-.1,0-.1.07-.16.07-.1.04-.16.04-.28.13h-.15c-.2.09-.33.09-.42.16h0c-.36.09-.69.23-1.04.41h-.1v-.18h0s0,0,.1,0h0c.08-.47-.1-.78-.36-1.07h0c0-.06-.07-.06-.07-.06l-.04-.1c-.22-.19-.53-.26-.87-.26-4.06.36-7.67,1.19-10.59,2.48-1.05.42-1.99.94-2.86,1.42h-.08s-.03,0,0-.03v-.35h0c.08-.36-.09-.79-.41-1.04h0l-.1-.13h-.08l-.09-.04c-.28-.09-.54-.13-.85-.09-3.97,1.09-7.31,2.68-10.08,4.56-.04.04-.12.06-.12.06l-.13.09h-.04c-.81.12-1.57.12-2.35.12-.61-.1-2.66-.28-2.83-.28-2.16-.29-4.04-.43-6.97.28M486.87,64.02h.17c.09.07.09.13.09.16-.09,2.18-.79,5.64-3.15,9.29-.23.36-.23.84,0,1.21.32.39.73.62,1.21.5,0,0,3.09-.58,6.18-.34.13,0,.16,0,.16.11,0,.01,0,.06-.03.12-2.67,2.14-7.98,5.7-13.68,5.7h-.57c-.09,0-.14-.1-.14-.17-.13-2.7.49-9.8,9.76-16.58M467.18,85.07c.51-2.19,1.47-4.29,2.76-6.36,1.34-2.04,3.09-4.02,5.24-5.84,0-.07.07-.07.14,0l.06.07c.02,2.26-.2,5.67-2.24,9.51-.17.44-.17.96.14,1.29.33.39.81.55,1.24.32.04,0,2.97-.95,6.07-1.01.09,0,.11,0,.17.04,0,.02,0,.1-.07.12-1.16,1.2-2.37,2.25-3.53,3.12-2.47,1.94-6.08,4.17-9.64,4.17h-.39s-.12-.04-.12-.04c-.17-.84-.37-2.76.15-5.38M464.06,83.36h0c.05-.1.13-.1.13-.1.07,0,.16.1.16.14.4,2.17.59,5.61-.76,9.72-.09.44.08,1.06.42,1.3.38.32.92.32,1.34,0,0,0,2.67-1.77,6.06-2.08h.16v.22c-2.24,3.08-6.78,8.43-12.65,9.38h0c-.07,0-.17-.04-.17-.14-.85-2.55-2.03-9.59,5.31-18.44M451.46,102.31c.71-2.29,1.8-4.72,3.36-7.06,0-.05.07-.05.17-.05,0,0,.09.05.09.1.67,2.16,1.29,5.46.39,9.78,0,.45.19.99.63,1.21.43.26,1.05.12,1.38-.22,0,0,2.48-2.39,5.91-2.9q.11,0,.16.08s.04.1.04.21c-.53.93-1.32,2.39-2.43,3.97-2.57,3.5-5.69,5.87-9.18,6.95h-.06c-.07,0-.13-.07-.13-.12-.33-.66-1.11-2.58-1.17-5.13-.17-2.23.06-4.51.84-6.83M444.63,115.42c.36-2.4,1.15-4.91,2.29-7.46,0,0,.06-.14.11-.14.05,0,.12.11.12.11,1.05,1.95,2.16,5.2,1.93,9.63-.04.43.23.9.65,1.03.43.26.88.17,1.26-.1.11-.09,2.7-2.31,5.65-3.66.08,0,.17,0,.21.07.04,0,.04.11.04.18-.38,1.19-.8,2.4-1.32,3.52-1.86,3.76-4.77,6.7-8.66,8.65h-.05c-.05,0-.12-.08-.12-.08-.53-.75-1.48-2.48-1.94-4.91-.5-2.14-.59-4.46-.18-6.83M441,121.52s.02-.03.06-.1c.05,0,.13.07.15.07,1.2,1.88,2.76,4.99,3.1,9.27.07.56.38.91.8,1.03.41.22.95,0,1.26-.34.05-.05,2.17-2.56,5.18-4.29,0-.06.08-.06.12,0,.05,0,.05.08.05.08-.1,1.33-.37,2.55-.79,3.88-1.36,4.04-3.85,7.26-7.51,9.53h-.22c-.46-.59-1.71-2.14-2.56-4.65-.69-2.06-1.05-4.33-1.01-6.75.06-2.44.51-4.98,1.38-7.73M436.76,135.8h0s.11-.15.11-.15c.09,0,.16,0,.16.11,1.46,1.63,3.35,4.52,4.18,8.76.16.44.49.88.96.88.44.12.92,0,1.17-.44.23-.25,2.05-2.84,4.51-4.79h.07c.09,0,.17.01.17.11-.08,1.32-.23,2.5-.53,3.81-1,4.11-2.95,7.65-6,10.28-.06,0-.06.1-.06.1-.08,0-.11-.1-.11-.1-.69-.57-2.02-1.9-3.11-4.21-1.01-1.95-1.58-4.17-1.82-6.58-.27-2.37-.2-5.02.31-7.78M434.6,150.07s.09-.14.09-.14h.18c1.57,1.7,3.61,4.46,4.65,8.68.16.44.52.8,1.05.88.45,0,.92-.24,1.1-.68.08-.11,1.42-2.87,3.79-5.01.06,0,.18-.12.18,0,.06,0,.06.04.06.11,0,1.48-.06,2.88-.32,4.26-.69,4.39-2.4,7.88-5.1,10.29h-.14c-.61-.46-2.09-1.86-3.38-4.11-1.02-1.91-1.73-4.12-2.1-6.53-.39-2.41-.39-4.97-.06-7.77M433.45,165.08h0c0-.12.08-.12.08-.19.07,0,.12,0,.12.07.35.26.66.57.95.9,1.3,1.44,3.14,3.83,4.31,7.39.09.48.55.82,1.06.82h.07c.59-.06.98-.41,1.02-.97.05-.06.61-3.05,3.15-5.38,0-.06.1-.06.1-.06.07,0,.14.06.14.13.31,1.66.48,4.28.02,7.08-.57,3.35-1.94,6.11-4.19,8.27q0,.06-.07.06c-.06,0-.08,0-.08-.06-2.26-1.61-7.41-6.63-6.69-18.05M432.91,179.59q.08-.09.19,0c.35.21.65.48,1,.76,1.42,1.28,3.52,3.52,4.97,6.95.24.37.62.69,1.08.69h.02s0,0,0,0c.48,0,.86-.32,1.06-.8,0-.07,1.4-3.24,3.48-5.67,0-.05.07-.05.11-.05s.13.05.13.05c.71,3.1,1.13,9.23-3.44,15.41h-.18c-2.39-1.37-7.96-5.88-8.49-17.26q0-.08.09-.08M433.65,194.72h0v-.14h.2c1.98.99,4.91,2.96,7.27,6.59.26.38.74.57,1.14.46.48-.08.83-.43.94-.83v-.06c.08-.23.77-3.54,2.49-6.35.01-.04.09-.04.09-.04h0q.09,0,.09.1c.64,1.19,1.1,2.5,1.38,3.86.85,4.12.19,8.17-2.04,11.97,0,.05-.04.05-.1.05h-.11c-.68-.28-2.58-1.08-4.5-2.8-1.65-1.5-3.08-3.32-4.24-5.42-1.11-2.17-2.07-4.64-2.6-7.39M437.04,208.78h0q0-.07.1-.14s.05-.03.11-.03c.37.16.79.34,1.11.57,1.78.87,4.32,2.52,6.63,5.43.28.45.79.57,1.18.45.48-.11.81-.52.86-.98.05-.15.52-3.41,1.91-6.23,0-.08,0-.08.11-.08.04,0,.1,0,.1.08,1.47,3.09,3.4,9.24.59,15.56,0,0-.09.06-.12.06h-.05c-2.65-.77-9.18-3.64-12.53-14.69M445.46,229.61c-1.49-1.89-2.84-4.11-3.97-6.7,0-.04,0-.12.06-.17.03-.03.12-.03.12-.03.42.08.74.29,1.19.43,1.9.7,4.58,2.04,7.21,4.7.38.23.78.4,1.28.23.37-.18.67-.55.71-1.01,0-.07.1-3.33,1.1-6.36,0-.08,0-.15.09-.15.1,0,.15.07.15.07.68,1.21,1.31,2.52,1.77,3.82,1.47,4.01,1.72,7.95.62,11.54-.06.05-.15.12-.15.12h-.03c-.75-.14-2.68-.61-4.95-1.89-1.9-1.15-3.65-2.65-5.22-4.59M447.55,236.26q-.02-.08,0-.16s.05-.07.11,0c2.23.4,5.59,1.38,8.96,4.03.4.37.87.37,1.29.12.45-.19.64-.68.61-1.14-.11-.08-.35-3.08.24-6.25.1-.08.1-.12.12-.12.05,0,.15,0,.22.04.78,1.2,1.46,2.39,2.06,3.72,1.39,2.61,2.85,6.86,2.08,11.13,0,0-.1.08-.17.08-.9-.08-2.83-.28-5.1-1.3-2.02-.83-3.91-2.22-5.74-3.94-1.68-1.66-3.28-3.72-4.68-6.21M460.41,254.5c-1.9-1.46-3.77-3.41-5.42-5.69v-.17c.09,0,.12-.1.19-.1,2.2.21,5.61.91,9.24,3.2.48.26.94.26,1.37,0,.35-.3.54-.8.35-1.2,0-.08-.71-3.04-.33-6.28q0-.08.11-.13.08,0,.17.06c2.31,2.77,6.08,8.33,5.73,14.26,0,.06-.07.19-.16.19h-.55c-1.03,0-2.7-.15-4.64-.79-2.1-.68-4.18-1.83-6.04-3.35M481.23,268.31c-.33,0-1.03.15-1.95.15s-1.85-.15-2.85-.29c-4.1-.73-8.26-3.19-12.41-7.13,0,0-.06-.07,0-.11,0-.08.05-.15.1-.15,2.21-.28,5.74-.28,9.79,1.32.43.2.84.05,1.19-.31.31-.26.41-.75.23-1.18,0-.05-1.18-3.02-1.5-6.17,0-.11.08-.12.15-.22,0,0,.12,0,.12.1,2.8,2.31,7.53,7.28,7.22,13.84,0,.07,0,.14-.09.14M508.77,280.36c-3.18-.87-6.44-1.96-9.55-3.34-5.41-2.23-10.57-5.19-15.53-8.61v-.1c.06-1.94-.17-3.94-.86-5.81,0,0,0-.05.07-.1h.04c3.82,3.16,7.11,5.68,10.8,7.72,4.22,2.32,8.67,4.21,13.24,5.58h0l1.03.34c0,1.65.33,3.12,1.18,4.48l-.41-.16ZM516.35,276.83c-.63,1.6-.48,3.3.33,4.88,0,.09,0,.13-.05.21q-.04.06-.12.06h-.09c-2-.69-3.54-1.61-4.39-2.68-.77-1.02-1.13-2.06-.96-3.32.1-.95.55-1.64,1.2-2.15,1.29-.84,3.55-1.1,6.6-.84.04,0,.11.07.16.17,0,.06,0,.15-.05.18-1.29.92-2.14,2.03-2.64,3.5M525.51,291.37c-2.16,0-3.94-1.71-3.94-3.97s1.78-3.98,3.94-3.98,3.97,1.81,3.97,3.98-1.8,3.97-3.97,3.97M530.33,282.17c-.05.08-.16.08-.25,0-1.28-.99-2.93-1.7-4.57-1.7s-3.35.7-4.59,1.78c-.15,0-.15.08-.15.08-.05,0-.13-.08-.13-.08-1.04-1.08-2.12-2.76-1.5-4.39,1.26-3.53,6.21-3.53,6.27-3.53h0c.37,0,1.54,0,2.9.45,1.77.57,3,1.59,3.52,3.08.55,1.6-.44,3.31-1.5,4.3M538.91,279.2c-.83,1.16-2.35,2.08-4.43,2.77h-.02q-.07,0-.15-.06v-.21c.76-1.7.89-3.3.32-4.88-.49-1.48-1.46-2.58-2.65-3.5-.04-.03-.11-.12-.04-.18.04-.1.04-.17.16-.17,2.1-.17,4.97-.21,6.53.84.74.51,1.15,1.2,1.26,2.15.14,1.27-.2,2.3-.98,3.23M567.34,268.31h-.09c-1.09.96-5.21,4.06-11.36,7.04-4.34,2.19-8.82,3.85-13.35,5.12l-.87.14c.87-1.31,1.28-2.83,1.24-4.57l1.28-.34h0c4.57-1.37,8.88-3.26,13.03-5.58,3.96-2.24,7.59-5.07,10.93-7.82h.04c.05,0,.05.1.05.1-.67,1.94-.98,3.97-.9,5.91M555.75,267.75c-4.28,2.28-8.68,4.17-13.14,5.55l-.44.14c-.4-.81-1.08-1.61-1.89-2.1-4.29-2.83-12.36-.82-14.78-.13h-.09c-2.39-.69-10.5-2.7-14.76.13-.86.5-1.47,1.29-1.88,2.1l-.77-.23c-4.33-1.37-8.61-3.17-12.82-5.45-9.29-5.25-17.57-12.7-24.82-22.17-2.49-3.39-4.79-6.92-6.97-10.58v-.07s0-.03.11-.03c4.88-2.18,17.59-7.92,28.54-13.51,0-.09.03-.09.03,0h.04c.06.48.17.96.4,1.38.89,2.12,3.28,2.94,5.04,3.17.59.1,1.15.21,1.75.21h.1c.71,1.72,2.16,2.97,4.36,3.64.74.29,1.53.48,2.36.57.05,0,.09,0,.09.07.33.94.97,1.72,1.8,2.33,2.13,1.44,5.15,1.2,6.73.98.07-.08.07,0,.07,0,.92,1.16,2.14,1.88,3.54,2.21,1.39.23,2.9.07,4.6-.54h0c.06,0,.06.06.06.06v19.29c0,1.3,1.16,2.48,2.4,2.48,1.4,0,2.51-1.18,2.51-2.48v-20.1c0-.07.02-.07.02-.1h.08c2.66.51,4.7.03,6.02-.46,1.23-.52,2.05-1.12,2.57-1.56h.09c2.46.44,4.67-.28,6.36-1.97.51-.5.96-1.12,1.28-1.79h.6c3.13,0,5.06-1.4,6.05-2.59.48-.61.92-1.22,1.25-1.99h.11c2.05-.11,3.75-.76,4.95-1.95.62-.53,1.04-1.27,1.38-1.99h.11c8.85,6.89,22.77,12.99,28.35,15.31h0v.11c-1.99,3.39-4.22,6.76-6.59,9.88-7.15,9.46-15.5,16.92-24.8,22.17M587.02,261.03h0c-5.21,4.9-9.62,6.57-12.43,7.13-.97.14-1.94.29-2.84.29s-1.53-.04-1.91-.15c-.05,0-.12-.08-.14-.14-.18-3.7,1.25-7.32,4.24-10.72.92-1.16,1.96-2.19,3.07-3.12.1,0,.13,0,.17,0,.09,0,.09.11.09.17-.34,3.08-1.54,6.06-1.54,6.1-.19.43-.1.92.17,1.18.32.37.81.51,1.28.31,4.04-1.6,7.53-1.6,9.76-1.32.06,0,.1.07.1.15v.11M596.17,248.88c-1.7,2.21-3.44,4.16-5.34,5.62-1.98,1.52-4.05,2.67-6.13,3.35-1.94.63-3.58.79-4.66.79h-.56c-.09,0-.12-.12-.16-.19-.26-3.54.83-7.33,3.25-11.01.67-1.17,1.56-2.19,2.45-3.3.03-.08.13-.08.16-.08.07.08.16.08.16.13.27,3.02-.32,6.06-.34,6.36-.11.4.06.93.45,1.2.39.26.83.26,1.23,0,3.69-2.29,7.11-2.99,9.35-3.1.04-.1.15,0,.15,0v.23M603.62,236.26c-1.43,2.48-3.01,4.55-4.69,6.21-1.83,1.72-3.72,3.12-5.71,3.94-2.39,1.02-4.37,1.21-5.14,1.3-.08,0-.16-.08-.16-.08-.6-3.57.09-7.38,2.08-11.31.58-1.23,1.27-2.44,2.15-3.59,0-.1.06-.1.11-.1.04,0,.11.1.11.14.62,3.05.37,6.33.37,6.43-.08.44.17.86.54,1.05.38.25.88.21,1.22-.12,3.46-2.66,6.7-3.64,8.94-4.03.11-.07.14,0,.18.03v.13M609.63,222.53h0c-1.09,2.67-2.49,4.99-4.01,6.89-1.56,1.93-3.25,3.43-5.18,4.55-2.18,1.28-3.98,1.81-4.97,1.85h0c-.07,0-.13,0-.17-.04-1.04-3.61-.82-7.55.7-11.64.47-1.15,1.03-2.39,1.6-3.59q.09-.07.2-.07s.09.03.16.07c.98,3.12,1.13,6.32,1.13,6.32,0,.5.26.86.7,1.02.4.18.94.07,1.24-.26h0c2.67-2.94,5.36-4.31,7.16-4.93.42-.12.86-.28,1.3-.34.07,0,.12,0,.13.04v.13M614.02,208.71h0c-.85,2.68-1.99,5.03-3.34,7.13-1.28,1.97-2.91,3.7-4.68,4.95-2.12,1.56-4,2.19-4.8,2.4h0c-.06,0-.06-.06-.16-.11-1.69-4.19-1.18-8.65-.42-11.65.28-1.37.74-2.72,1.28-4.03q0-.12.1-.12c.11,0,.2,0,.2.12,1.24,2.93,1.69,6.35,1.71,6.44.07.48.37.86.86.99.45.13.87-.05,1.2-.39,2.74-3.34,5.79-5.05,7.8-5.89.09,0,.15,0,.19.07.07,0,.07.03.07.1M614.45,201.54c-1.09,2.17-2.42,4.06-4.05,5.61-1.79,1.75-3.51,2.54-4.37,2.91h-.08s-.09-.01-.14-.1c-1.84-3.32-2.5-7.2-1.94-11.66.1-1.38.39-2.75.79-4.15,0-.06.1-.12.14-.12.02,0,.11.06.11.06,1.64,2.83,2.49,6.24,2.57,6.35.09.48.46.83.92.83.46.1.87-.1,1.16-.5,2.25-3.63,5.07-5.74,7.06-6.79.08-.11.16-.11.16,0,.04,0,.09.1.04.16-.5,2.77-1.31,5.28-2.37,7.38"/>
    </g>
  </g>
  <rect class="cls-4" x="1199.9" width="20.72" height="304.98"/>
  <g>
    <g>
      <rect class="cls-1" y="61.21" width="336.05" height="209.47"/>
      <rect class="cls-3" y="130.72" width="336.05" height="70.45"/>
    </g>
    <circle class="cls-2" cx="168.86" cy="166.47" r="24.64"/>
  </g>
</svg>